<svg xmlns="http://www.w3.org/2000/svg" width="1024" height="1024" viewBox="0 0 1024 1024">
<defs>
  <radialGradient id="bg" cx="50%" cy="42%" r="75%">
    <stop offset="0%" stop-color="#1b1040"/>
    <stop offset="55%" stop-color="#0c0820"/>
    <stop offset="100%" stop-color="#05060f"/>
  </radialGradient>
  <filter id="glow" x="-60%" y="-60%" width="220%" height="220%">
    <feGaussianBlur stdDeviation="10" result="b"/>
    <feMerge><feMergeNode in="b"/><feMergeNode in="SourceGraphic"/></feMerge>
  </filter>
  <filter id="glowBig" x="-80%" y="-80%" width="260%" height="260%">
    <feGaussianBlur stdDeviation="22" result="b"/>
    <feMerge><feMergeNode in="b"/><feMergeNode in="b"/><feMergeNode in="SourceGraphic"/></feMerge>
  </filter>
</defs>
<rect width="1024" height="1024" fill="url(#bg)"/>
<circle cx="795" cy="822" r="2.6" fill="#dff8ff" opacity="0.71"/>
<circle cx="595" cy="961" r="2.0" fill="#dff8ff" opacity="0.44"/>
<circle cx="51" cy="501" r="1.6" fill="#dff8ff" opacity="0.69"/>
<circle cx="687" cy="216" r="2.0" fill="#dff8ff" opacity="0.65"/>
<circle cx="618" cy="115" r="2.6" fill="#dff8ff" opacity="0.45"/>
<circle cx="120" cy="801" r="2.0" fill="#dff8ff" opacity="0.52"/>
<circle cx="120" cy="220" r="2.0" fill="#dff8ff" opacity="0.31"/>
<circle cx="516" cy="913" r="2.0" fill="#dff8ff" opacity="0.40"/>
<circle cx="145" cy="512" r="1.6" fill="#dff8ff" opacity="0.32"/>
<circle cx="163" cy="232" r="1.2" fill="#dff8ff" opacity="0.36"/>
<circle cx="193" cy="655" r="2.0" fill="#dff8ff" opacity="0.47"/>
<circle cx="116" cy="611" r="2.6" fill="#dff8ff" opacity="0.52"/>
<circle cx="831" cy="797" r="2.6" fill="#dff8ff" opacity="0.53"/>
<circle cx="113" cy="750" r="2.0" fill="#dff8ff" opacity="0.52"/>
<circle cx="727" cy="960" r="1.2" fill="#dff8ff" opacity="0.26"/>
<circle cx="149" cy="598" r="2.0" fill="#dff8ff" opacity="0.36"/>
<circle cx="528" cy="976" r="2.6" fill="#dff8ff" opacity="0.62"/>
<circle cx="491" cy="167" r="2.6" fill="#dff8ff" opacity="0.55"/>
<circle cx="383" cy="187" r="2.6" fill="#dff8ff" opacity="0.67"/>
<circle cx="182" cy="828" r="1.2" fill="#dff8ff" opacity="0.62"/>
<circle cx="977" cy="510" r="1.2" fill="#dff8ff" opacity="0.80"/>
<circle cx="179" cy="290" r="1.2" fill="#dff8ff" opacity="0.50"/>
<circle cx="784" cy="814" r="2.6" fill="#dff8ff" opacity="0.30"/>
<circle cx="957" cy="686" r="1.6" fill="#dff8ff" opacity="0.61"/>
<circle cx="169" cy="635" r="1.2" fill="#dff8ff" opacity="0.68"/>
<circle cx="74" cy="491" r="1.2" fill="#dff8ff" opacity="0.63"/>
<circle cx="706" cy="152" r="1.2" fill="#dff8ff" opacity="0.35"/>
<circle cx="838" cy="661" r="2.6" fill="#dff8ff" opacity="0.67"/>
<circle cx="793" cy="162" r="1.6" fill="#dff8ff" opacity="0.80"/>
<circle cx="717" cy="91" r="2.0" fill="#dff8ff" opacity="0.84"/>
<circle cx="306" cy="936" r="1.2" fill="#dff8ff" opacity="0.55"/>
<circle cx="260" cy="749" r="1.6" fill="#dff8ff" opacity="0.45"/>
<circle cx="883" cy="182" r="1.2" fill="#dff8ff" opacity="0.49"/>
<circle cx="161" cy="746" r="1.2" fill="#dff8ff" opacity="0.33"/>
<circle cx="368" cy="973" r="1.6" fill="#dff8ff" opacity="0.57"/>
<circle cx="175" cy="302" r="1.6" fill="#dff8ff" opacity="0.55"/>
<circle cx="849" cy="798" r="1.6" fill="#dff8ff" opacity="0.67"/>
<circle cx="719" cy="151" r="1.6" fill="#dff8ff" opacity="0.70"/>
<circle cx="988" cy="571" r="1.2" fill="#dff8ff" opacity="0.72"/>
<circle cx="992" cy="561" r="1.6" fill="#dff8ff" opacity="0.68"/>
<circle cx="762" cy="140" r="1.2" fill="#dff8ff" opacity="0.65"/>
<circle cx="604" cy="88" r="1.6" fill="#dff8ff" opacity="0.72"/>
<circle cx="919" cy="313" r="2.6" fill="#dff8ff" opacity="0.30"/>
<circle cx="583" cy="87" r="2.6" fill="#dff8ff" opacity="0.32"/>
<circle cx="225" cy="858" r="1.6" fill="#dff8ff" opacity="0.42"/>
<circle cx="43" cy="538" r="2.0" fill="#dff8ff" opacity="0.72"/>
<circle cx="120" cy="604" r="1.2" fill="#dff8ff" opacity="0.47"/>
<circle cx="691" cy="966" r="2.0" fill="#dff8ff" opacity="0.33"/>
<circle cx="114" cy="599" r="2.0" fill="#dff8ff" opacity="0.39"/>
<circle cx="151" cy="556" r="1.6" fill="#dff8ff" opacity="0.84"/>
<circle cx="525" cy="146" r="2.6" fill="#dff8ff" opacity="0.53"/>
<circle cx="861" cy="542" r="2.6" fill="#dff8ff" opacity="0.38"/>
<circle cx="782" cy="200" r="2.6" fill="#dff8ff" opacity="0.62"/>
<circle cx="771" cy="923" r="1.2" fill="#dff8ff" opacity="0.37"/>
<circle cx="536" cy="964" r="2.0" fill="#dff8ff" opacity="0.78"/>
<circle cx="670" cy="962" r="2.0" fill="#dff8ff" opacity="0.33"/>
<circle cx="135" cy="611" r="1.6" fill="#dff8ff" opacity="0.74"/>
<circle cx="758" cy="238" r="2.0" fill="#dff8ff" opacity="0.34"/>
<circle cx="732" cy="914" r="1.6" fill="#dff8ff" opacity="0.83"/>
<circle cx="247" cy="151" r="2.6" fill="#dff8ff" opacity="0.69"/>
<circle cx="471" cy="137" r="1.6" fill="#dff8ff" opacity="0.52"/>
<circle cx="633" cy="909" r="2.0" fill="#dff8ff" opacity="0.70"/>
<circle cx="89" cy="661" r="2.6" fill="#dff8ff" opacity="0.85"/>
<circle cx="469" cy="89" r="2.0" fill="#dff8ff" opacity="0.79"/>
<circle cx="858" cy="167" r="1.6" fill="#dff8ff" opacity="0.47"/>
<circle cx="764" cy="747" r="1.2" fill="#dff8ff" opacity="0.82"/>
<circle cx="980" cy="390" r="1.6" fill="#dff8ff" opacity="0.66"/>
<circle cx="493" cy="98" r="1.2" fill="#dff8ff" opacity="0.49"/>
<circle cx="566" cy="882" r="1.2" fill="#dff8ff" opacity="0.55"/>
<circle cx="966" cy="538" r="2.6" fill="#dff8ff" opacity="0.58"/>
<circle cx="512" cy="512" r="482" fill="none" stroke="#ffc400" stroke-width="4" opacity="0.22"/>
<circle cx="512" cy="512" r="452" fill="none" stroke="#ffc400" stroke-width="7" opacity="0.55" filter="url(#glow)"/>

<rect x="282" y="216" width="460" height="574" rx="30" fill="none" stroke="#ffc400" stroke-width="11" filter="url(#glowBig)"/>
<line x1="322" y1="262" x2="558" y2="262" stroke="#ffd54f" stroke-width="9" stroke-linecap="round" filter="url(#glow)"/>
<circle cx="690" cy="262" r="11" fill="#69f0ae" filter="url(#glow)"/>
<g filter="url(#glow)"><rect x="290" y="306" width="96" height="80" rx="12" fill="#ffc400" opacity="0.92"/><rect x="406" y="306" width="96" height="80" rx="12" fill="#ffc400" opacity="0.92"/><rect x="522" y="306" width="96" height="80" rx="12" fill="#ffc400" opacity="0.92"/><rect x="638" y="306" width="96" height="80" rx="12" fill="#ffc400" opacity="0.92"/><rect x="290" y="418" width="96" height="80" rx="12" fill="#ffc400" opacity="0.92"/><rect x="406" y="418" width="96" height="80" rx="12" fill="#ffc400" opacity="0.92"/><rect x="522" y="418" width="96" height="80" rx="12" fill="#ffc400" opacity="0.92"/><rect x="638" y="418" width="96" height="80" rx="12" fill="#ffc400" opacity="0.92"/><rect x="290" y="530" width="96" height="80" rx="12" fill="#ffc400" opacity="0.92"/><rect x="406" y="530" width="96" height="80" rx="12" fill="#ffc400" opacity="0.92"/><rect x="522" y="530" width="96" height="80" rx="12" fill="#ffc400" opacity="0.92"/><rect x="638" y="530" width="96" height="80" rx="12" fill="#ffc400" opacity="0.92"/><rect x="406" y="642" width="96" height="80" rx="12" fill="#ffc400" opacity="0.92"/><rect x="522" y="642" width="96" height="80" rx="12" fill="#ffc400" opacity="0.92"/></g>
</svg>