<svg xmlns="http://www.w3.org/2000/svg" width="1024" height="1024" viewBox="0 0 1024 1024">
<defs>
  <radialGradient id="bg" cx="50%" cy="42%" r="75%">
    <stop offset="0%" stop-color="#1b1040"/>
    <stop offset="55%" stop-color="#0c0820"/>
    <stop offset="100%" stop-color="#05060f"/>
  </radialGradient>
  <filter id="glow" x="-60%" y="-60%" width="220%" height="220%">
    <feGaussianBlur stdDeviation="10" result="b"/>
    <feMerge><feMergeNode in="b"/><feMergeNode in="SourceGraphic"/></feMerge>
  </filter>
  <filter id="glowBig" x="-80%" y="-80%" width="260%" height="260%">
    <feGaussianBlur stdDeviation="22" result="b"/>
    <feMerge><feMergeNode in="b"/><feMergeNode in="b"/><feMergeNode in="SourceGraphic"/></feMerge>
  </filter>
</defs>
<rect width="1024" height="1024" fill="url(#bg)"/>
<circle cx="152" cy="709" r="1.2" fill="#dff8ff" opacity="0.33"/>
<circle cx="416" cy="59" r="2.6" fill="#dff8ff" opacity="0.52"/>
<circle cx="900" cy="395" r="1.2" fill="#dff8ff" opacity="0.65"/>
<circle cx="124" cy="815" r="2.6" fill="#dff8ff" opacity="0.62"/>
<circle cx="899" cy="591" r="1.6" fill="#dff8ff" opacity="0.61"/>
<circle cx="550" cy="66" r="1.6" fill="#dff8ff" opacity="0.34"/>
<circle cx="859" cy="470" r="2.6" fill="#dff8ff" opacity="0.42"/>
<circle cx="374" cy="876" r="1.6" fill="#dff8ff" opacity="0.34"/>
<circle cx="905" cy="315" r="1.6" fill="#dff8ff" opacity="0.41"/>
<circle cx="834" cy="889" r="1.6" fill="#dff8ff" opacity="0.64"/>
<circle cx="142" cy="798" r="2.6" fill="#dff8ff" opacity="0.46"/>
<circle cx="133" cy="532" r="2.0" fill="#dff8ff" opacity="0.34"/>
<circle cx="933" cy="501" r="1.6" fill="#dff8ff" opacity="0.84"/>
<circle cx="165" cy="402" r="1.2" fill="#dff8ff" opacity="0.70"/>
<circle cx="369" cy="960" r="1.2" fill="#dff8ff" opacity="0.64"/>
<circle cx="511" cy="88" r="1.2" fill="#dff8ff" opacity="0.78"/>
<circle cx="868" cy="809" r="1.6" fill="#dff8ff" opacity="0.36"/>
<circle cx="965" cy="456" r="1.2" fill="#dff8ff" opacity="0.37"/>
<circle cx="246" cy="812" r="1.6" fill="#dff8ff" opacity="0.48"/>
<circle cx="135" cy="725" r="1.6" fill="#dff8ff" opacity="0.68"/>
<circle cx="526" cy="117" r="2.6" fill="#dff8ff" opacity="0.59"/>
<circle cx="137" cy="234" r="1.2" fill="#dff8ff" opacity="0.67"/>
<circle cx="620" cy="52" r="2.0" fill="#dff8ff" opacity="0.75"/>
<circle cx="539" cy="973" r="1.6" fill="#dff8ff" opacity="0.55"/>
<circle cx="107" cy="339" r="2.6" fill="#dff8ff" opacity="0.38"/>
<circle cx="972" cy="386" r="2.0" fill="#dff8ff" opacity="0.56"/>
<circle cx="633" cy="953" r="2.0" fill="#dff8ff" opacity="0.64"/>
<circle cx="135" cy="498" r="2.6" fill="#dff8ff" opacity="0.83"/>
<circle cx="847" cy="331" r="2.0" fill="#dff8ff" opacity="0.49"/>
<circle cx="400" cy="916" r="2.0" fill="#dff8ff" opacity="0.74"/>
<circle cx="289" cy="96" r="2.0" fill="#dff8ff" opacity="0.84"/>
<circle cx="294" cy="826" r="2.0" fill="#dff8ff" opacity="0.42"/>
<circle cx="886" cy="427" r="2.0" fill="#dff8ff" opacity="0.40"/>
<circle cx="285" cy="122" r="2.6" fill="#dff8ff" opacity="0.77"/>
<circle cx="119" cy="615" r="1.2" fill="#dff8ff" opacity="0.44"/>
<circle cx="858" cy="660" r="2.0" fill="#dff8ff" opacity="0.85"/>
<circle cx="102" cy="252" r="1.2" fill="#dff8ff" opacity="0.61"/>
<circle cx="531" cy="140" r="2.0" fill="#dff8ff" opacity="0.51"/>
<circle cx="173" cy="732" r="1.2" fill="#dff8ff" opacity="0.31"/>
<circle cx="200" cy="752" r="1.2" fill="#dff8ff" opacity="0.82"/>
<circle cx="201" cy="195" r="2.0" fill="#dff8ff" opacity="0.43"/>
<circle cx="137" cy="722" r="1.2" fill="#dff8ff" opacity="0.85"/>
<circle cx="193" cy="765" r="1.2" fill="#dff8ff" opacity="0.67"/>
<circle cx="307" cy="815" r="2.6" fill="#dff8ff" opacity="0.60"/>
<circle cx="489" cy="153" r="2.0" fill="#dff8ff" opacity="0.55"/>
<circle cx="967" cy="544" r="2.0" fill="#dff8ff" opacity="0.73"/>
<circle cx="160" cy="501" r="2.6" fill="#dff8ff" opacity="0.32"/>
<circle cx="410" cy="64" r="2.0" fill="#dff8ff" opacity="0.55"/>
<circle cx="588" cy="876" r="2.0" fill="#dff8ff" opacity="0.85"/>
<circle cx="68" cy="610" r="2.0" fill="#dff8ff" opacity="0.84"/>
<circle cx="375" cy="943" r="1.2" fill="#dff8ff" opacity="0.54"/>
<circle cx="194" cy="257" r="2.0" fill="#dff8ff" opacity="0.60"/>
<circle cx="929" cy="756" r="2.6" fill="#dff8ff" opacity="0.47"/>
<circle cx="636" cy="67" r="1.6" fill="#dff8ff" opacity="0.81"/>
<circle cx="164" cy="287" r="1.2" fill="#dff8ff" opacity="0.72"/>
<circle cx="281" cy="841" r="2.0" fill="#dff8ff" opacity="0.49"/>
<circle cx="453" cy="161" r="1.2" fill="#dff8ff" opacity="0.47"/>
<circle cx="197" cy="171" r="1.2" fill="#dff8ff" opacity="0.30"/>
<circle cx="795" cy="762" r="1.6" fill="#dff8ff" opacity="0.34"/>
<circle cx="416" cy="944" r="1.6" fill="#dff8ff" opacity="0.82"/>
<circle cx="43" cy="457" r="1.6" fill="#dff8ff" opacity="0.44"/>
<circle cx="335" cy="120" r="1.6" fill="#dff8ff" opacity="0.80"/>
<circle cx="122" cy="523" r="2.6" fill="#dff8ff" opacity="0.80"/>
<circle cx="759" cy="820" r="2.6" fill="#dff8ff" opacity="0.79"/>
<circle cx="440" cy="172" r="1.6" fill="#dff8ff" opacity="0.64"/>
<circle cx="780" cy="788" r="2.0" fill="#dff8ff" opacity="0.81"/>
<circle cx="451" cy="78" r="2.6" fill="#dff8ff" opacity="0.67"/>
<circle cx="92" cy="501" r="1.6" fill="#dff8ff" opacity="0.39"/>
<circle cx="706" cy="212" r="2.6" fill="#dff8ff" opacity="0.34"/>
<circle cx="825" cy="260" r="1.2" fill="#dff8ff" opacity="0.51"/>
<circle cx="512" cy="512" r="482" fill="none" stroke="#69f0ae" stroke-width="4" opacity="0.22"/>
<circle cx="512" cy="512" r="452" fill="none" stroke="#69f0ae" stroke-width="7" opacity="0.55" filter="url(#glow)"/>

<circle cx="512" cy="512" r="296" fill="none" stroke="#aef4ff" stroke-width="9" opacity="0.75" filter="url(#glow)"/>
<path d="M 130 512 L 380 512 L 432 400 L 500 646 L 556 452 L 596 512 L 894 512"
  fill="none" stroke="#69f0ae" stroke-width="15" stroke-linecap="round" stroke-linejoin="round" filter="url(#glowBig)"/>
<path d="M 512 292 C 468 306, 468 336, 512 350 C 550 362, 550 386, 512 398"
  fill="none" stroke="#ffd54f" stroke-width="9" stroke-linecap="round" filter="url(#glow)"/>
<g fill="none" stroke="#69f0ae" stroke-width="7" filter="url(#glow)" opacity="0.9">
  <rect x="418" y="708" width="52" height="52" rx="10"/>
  <rect x="486" y="708" width="52" height="52" rx="10"/>
  <rect x="554" y="708" width="52" height="52" rx="10"/>
</g>
</svg>