<svg xmlns="http://www.w3.org/2000/svg" width="1024" height="1024" viewBox="0 0 1024 1024">
<defs>
  <radialGradient id="bg" cx="50%" cy="42%" r="75%">
    <stop offset="0%" stop-color="#1b1040"/>
    <stop offset="55%" stop-color="#0c0820"/>
    <stop offset="100%" stop-color="#05060f"/>
  </radialGradient>
  <filter id="glow" x="-60%" y="-60%" width="220%" height="220%">
    <feGaussianBlur stdDeviation="10" result="b"/>
    <feMerge><feMergeNode in="b"/><feMergeNode in="SourceGraphic"/></feMerge>
  </filter>
  <filter id="glowBig" x="-80%" y="-80%" width="260%" height="260%">
    <feGaussianBlur stdDeviation="22" result="b"/>
    <feMerge><feMergeNode in="b"/><feMergeNode in="b"/><feMergeNode in="SourceGraphic"/></feMerge>
  </filter>
</defs>
<rect width="1024" height="1024" fill="url(#bg)"/>
<circle cx="743" cy="919" r="1.2" fill="#dff8ff" opacity="0.75"/>
<circle cx="778" cy="270" r="1.2" fill="#dff8ff" opacity="0.79"/>
<circle cx="139" cy="482" r="1.6" fill="#dff8ff" opacity="0.48"/>
<circle cx="128" cy="270" r="1.6" fill="#dff8ff" opacity="0.49"/>
<circle cx="206" cy="866" r="2.6" fill="#dff8ff" opacity="0.35"/>
<circle cx="798" cy="164" r="2.6" fill="#dff8ff" opacity="0.33"/>
<circle cx="232" cy="238" r="1.6" fill="#dff8ff" opacity="0.77"/>
<circle cx="309" cy="957" r="1.6" fill="#dff8ff" opacity="0.36"/>
<circle cx="960" cy="399" r="1.2" fill="#dff8ff" opacity="0.47"/>
<circle cx="190" cy="170" r="1.2" fill="#dff8ff" opacity="0.45"/>
<circle cx="94" cy="373" r="2.0" fill="#dff8ff" opacity="0.54"/>
<circle cx="709" cy="85" r="1.2" fill="#dff8ff" opacity="0.82"/>
<circle cx="393" cy="841" r="2.6" fill="#dff8ff" opacity="0.28"/>
<circle cx="219" cy="759" r="2.6" fill="#dff8ff" opacity="0.46"/>
<circle cx="778" cy="134" r="2.0" fill="#dff8ff" opacity="0.77"/>
<circle cx="118" cy="358" r="2.0" fill="#dff8ff" opacity="0.80"/>
<circle cx="358" cy="921" r="1.2" fill="#dff8ff" opacity="0.44"/>
<circle cx="335" cy="201" r="1.2" fill="#dff8ff" opacity="0.63"/>
<circle cx="108" cy="609" r="2.6" fill="#dff8ff" opacity="0.27"/>
<circle cx="976" cy="574" r="1.6" fill="#dff8ff" opacity="0.63"/>
<circle cx="790" cy="133" r="2.6" fill="#dff8ff" opacity="0.47"/>
<circle cx="87" cy="436" r="1.6" fill="#dff8ff" opacity="0.52"/>
<circle cx="971" cy="467" r="2.6" fill="#dff8ff" opacity="0.66"/>
<circle cx="483" cy="899" r="1.2" fill="#dff8ff" opacity="0.48"/>
<circle cx="356" cy="116" r="2.0" fill="#dff8ff" opacity="0.56"/>
<circle cx="63" cy="325" r="2.0" fill="#dff8ff" opacity="0.75"/>
<circle cx="720" cy="952" r="2.0" fill="#dff8ff" opacity="0.64"/>
<circle cx="590" cy="41" r="2.0" fill="#dff8ff" opacity="0.45"/>
<circle cx="363" cy="934" r="2.6" fill="#dff8ff" opacity="0.46"/>
<circle cx="843" cy="869" r="2.6" fill="#dff8ff" opacity="0.84"/>
<circle cx="952" cy="529" r="1.6" fill="#dff8ff" opacity="0.37"/>
<circle cx="379" cy="853" r="2.0" fill="#dff8ff" opacity="0.66"/>
<circle cx="196" cy="782" r="2.6" fill="#dff8ff" opacity="0.43"/>
<circle cx="563" cy="866" r="2.0" fill="#dff8ff" opacity="0.68"/>
<circle cx="638" cy="70" r="2.6" fill="#dff8ff" opacity="0.84"/>
<circle cx="190" cy="890" r="1.2" fill="#dff8ff" opacity="0.44"/>
<circle cx="205" cy="216" r="1.2" fill="#dff8ff" opacity="0.50"/>
<circle cx="368" cy="948" r="2.6" fill="#dff8ff" opacity="0.77"/>
<circle cx="960" cy="560" r="2.0" fill="#dff8ff" opacity="0.31"/>
<circle cx="590" cy="954" r="1.6" fill="#dff8ff" opacity="0.50"/>
<circle cx="386" cy="167" r="2.6" fill="#dff8ff" opacity="0.59"/>
<circle cx="134" cy="575" r="1.6" fill="#dff8ff" opacity="0.45"/>
<circle cx="875" cy="574" r="2.6" fill="#dff8ff" opacity="0.51"/>
<circle cx="967" cy="396" r="1.6" fill="#dff8ff" opacity="0.61"/>
<circle cx="338" cy="979" r="2.6" fill="#dff8ff" opacity="0.81"/>
<circle cx="666" cy="956" r="1.6" fill="#dff8ff" opacity="0.43"/>
<circle cx="784" cy="827" r="1.2" fill="#dff8ff" opacity="0.54"/>
<circle cx="487" cy="65" r="2.6" fill="#dff8ff" opacity="0.41"/>
<circle cx="144" cy="763" r="2.0" fill="#dff8ff" opacity="0.42"/>
<circle cx="813" cy="158" r="1.2" fill="#dff8ff" opacity="0.40"/>
<circle cx="469" cy="914" r="1.6" fill="#dff8ff" opacity="0.26"/>
<circle cx="909" cy="402" r="2.6" fill="#dff8ff" opacity="0.66"/>
<circle cx="724" cy="897" r="2.6" fill="#dff8ff" opacity="0.75"/>
<circle cx="306" cy="783" r="2.0" fill="#dff8ff" opacity="0.34"/>
<circle cx="178" cy="595" r="1.2" fill="#dff8ff" opacity="0.29"/>
<circle cx="252" cy="820" r="1.2" fill="#dff8ff" opacity="0.65"/>
<circle cx="706" cy="77" r="1.2" fill="#dff8ff" opacity="0.38"/>
<circle cx="652" cy="948" r="1.6" fill="#dff8ff" opacity="0.85"/>
<circle cx="206" cy="209" r="1.6" fill="#dff8ff" opacity="0.29"/>
<circle cx="144" cy="414" r="1.6" fill="#dff8ff" opacity="0.26"/>
<circle cx="118" cy="691" r="2.6" fill="#dff8ff" opacity="0.54"/>
<circle cx="935" cy="391" r="1.2" fill="#dff8ff" opacity="0.33"/>
<circle cx="938" cy="560" r="1.6" fill="#dff8ff" opacity="0.41"/>
<circle cx="159" cy="256" r="2.0" fill="#dff8ff" opacity="0.52"/>
<circle cx="405" cy="156" r="1.2" fill="#dff8ff" opacity="0.64"/>
<circle cx="112" cy="674" r="1.2" fill="#dff8ff" opacity="0.77"/>
<circle cx="401" cy="848" r="2.6" fill="#dff8ff" opacity="0.66"/>
<circle cx="245" cy="142" r="2.6" fill="#dff8ff" opacity="0.74"/>
<circle cx="165" cy="632" r="2.0" fill="#dff8ff" opacity="0.75"/>
<circle cx="309" cy="927" r="2.0" fill="#dff8ff" opacity="0.73"/>
<circle cx="512" cy="512" r="482" fill="none" stroke="#ff4081" stroke-width="4" opacity="0.22"/>
<circle cx="512" cy="512" r="452" fill="none" stroke="#ff4081" stroke-width="7" opacity="0.55" filter="url(#glow)"/>

<g filter="url(#glowBig)">
  <path d="M 430 760 C 300 740, 300 620, 430 600 C 560 580, 600 520, 540 440 C 500 386, 520 320, 580 300"
    fill="none" stroke="#ff4081" stroke-width="18" stroke-linecap="round"/>
  <circle cx="598" cy="286" r="26" fill="#ff4081"/>
  <path d="M 620 274 L 660 252 M 620 274 L 662 282" stroke="#ff4081" stroke-width="7" stroke-linecap="round" fill="none"/>
</g>
<g transform="rotate(24 636 620)" filter="url(#glow)">
  <path d="M 566 520 C 566 480, 706 480, 706 520 C 706 610, 672 668, 636 668 C 600 668, 566 610, 566 520 Z"
    fill="none" stroke="#b388ff" stroke-width="10"/>
  <ellipse cx="608" cy="546" rx="16" ry="11" fill="#b388ff"/>
  <ellipse cx="664" cy="546" rx="16" ry="11" fill="#b388ff"/>
  <path d="M 604 616 Q 636 636 668 616" fill="none" stroke="#b388ff" stroke-width="8" stroke-linecap="round"/>
</g>
<g fill="#ffc400" filter="url(#glow)">
  <path d="M 380 846 L 398 864 L 380 882 L 362 864 Z"/>
  <path d="M 512 862 L 530 880 L 512 898 L 494 880 Z"/>
  <path d="M 644 846 L 662 864 L 644 882 L 626 864 Z"/>
</g>
</svg>