<svg xmlns="http://www.w3.org/2000/svg" width="1024" height="1024" viewBox="0 0 1024 1024">
<defs>
  <radialGradient id="bg" cx="50%" cy="42%" r="75%">
    <stop offset="0%" stop-color="#1b1040"/>
    <stop offset="55%" stop-color="#0c0820"/>
    <stop offset="100%" stop-color="#05060f"/>
  </radialGradient>
  <filter id="glow" x="-60%" y="-60%" width="220%" height="220%">
    <feGaussianBlur stdDeviation="10" result="b"/>
    <feMerge><feMergeNode in="b"/><feMergeNode in="SourceGraphic"/></feMerge>
  </filter>
  <filter id="glowBig" x="-80%" y="-80%" width="260%" height="260%">
    <feGaussianBlur stdDeviation="22" result="b"/>
    <feMerge><feMergeNode in="b"/><feMergeNode in="b"/><feMergeNode in="SourceGraphic"/></feMerge>
  </filter>
</defs>
<rect width="1024" height="1024" fill="url(#bg)"/>
<circle cx="835" cy="739" r="2.0" fill="#dff8ff" opacity="0.40"/>
<circle cx="859" cy="521" r="2.0" fill="#dff8ff" opacity="0.58"/>
<circle cx="396" cy="890" r="1.6" fill="#dff8ff" opacity="0.59"/>
<circle cx="343" cy="162" r="2.0" fill="#dff8ff" opacity="0.85"/>
<circle cx="680" cy="205" r="2.6" fill="#dff8ff" opacity="0.73"/>
<circle cx="738" cy="904" r="2.0" fill="#dff8ff" opacity="0.72"/>
<circle cx="371" cy="976" r="2.6" fill="#dff8ff" opacity="0.35"/>
<circle cx="502" cy="922" r="2.0" fill="#dff8ff" opacity="0.65"/>
<circle cx="468" cy="901" r="2.0" fill="#dff8ff" opacity="0.59"/>
<circle cx="917" cy="728" r="2.6" fill="#dff8ff" opacity="0.65"/>
<circle cx="835" cy="875" r="2.0" fill="#dff8ff" opacity="0.71"/>
<circle cx="800" cy="831" r="2.6" fill="#dff8ff" opacity="0.44"/>
<circle cx="931" cy="631" r="1.2" fill="#dff8ff" opacity="0.72"/>
<circle cx="359" cy="38" r="1.6" fill="#dff8ff" opacity="0.85"/>
<circle cx="132" cy="584" r="1.2" fill="#dff8ff" opacity="0.41"/>
<circle cx="248" cy="874" r="1.2" fill="#dff8ff" opacity="0.70"/>
<circle cx="162" cy="286" r="1.6" fill="#dff8ff" opacity="0.82"/>
<circle cx="762" cy="85" r="2.0" fill="#dff8ff" opacity="0.35"/>
<circle cx="679" cy="110" r="1.2" fill="#dff8ff" opacity="0.27"/>
<circle cx="276" cy="814" r="1.6" fill="#dff8ff" opacity="0.69"/>
<circle cx="534" cy="32" r="1.2" fill="#dff8ff" opacity="0.73"/>
<circle cx="613" cy="74" r="2.0" fill="#dff8ff" opacity="0.70"/>
<circle cx="861" cy="710" r="2.6" fill="#dff8ff" opacity="0.83"/>
<circle cx="120" cy="693" r="1.2" fill="#dff8ff" opacity="0.26"/>
<circle cx="873" cy="359" r="2.0" fill="#dff8ff" opacity="0.61"/>
<circle cx="435" cy="47" r="1.6" fill="#dff8ff" opacity="0.65"/>
<circle cx="274" cy="157" r="1.6" fill="#dff8ff" opacity="0.31"/>
<circle cx="801" cy="714" r="2.0" fill="#dff8ff" opacity="0.66"/>
<circle cx="176" cy="401" r="1.6" fill="#dff8ff" opacity="0.32"/>
<circle cx="126" cy="205" r="1.6" fill="#dff8ff" opacity="0.31"/>
<circle cx="54" cy="675" r="2.6" fill="#dff8ff" opacity="0.44"/>
<circle cx="79" cy="433" r="1.6" fill="#dff8ff" opacity="0.80"/>
<circle cx="144" cy="383" r="2.0" fill="#dff8ff" opacity="0.43"/>
<circle cx="873" cy="427" r="1.2" fill="#dff8ff" opacity="0.43"/>
<circle cx="840" cy="678" r="1.2" fill="#dff8ff" opacity="0.74"/>
<circle cx="88" cy="644" r="2.6" fill="#dff8ff" opacity="0.37"/>
<circle cx="598" cy="101" r="2.0" fill="#dff8ff" opacity="0.26"/>
<circle cx="142" cy="390" r="2.6" fill="#dff8ff" opacity="0.33"/>
<circle cx="363" cy="886" r="2.0" fill="#dff8ff" opacity="0.32"/>
<circle cx="648" cy="955" r="1.2" fill="#dff8ff" opacity="0.26"/>
<circle cx="800" cy="289" r="2.6" fill="#dff8ff" opacity="0.68"/>
<circle cx="410" cy="181" r="2.0" fill="#dff8ff" opacity="0.58"/>
<circle cx="111" cy="732" r="1.2" fill="#dff8ff" opacity="0.29"/>
<circle cx="807" cy="896" r="1.2" fill="#dff8ff" opacity="0.80"/>
<circle cx="687" cy="811" r="1.2" fill="#dff8ff" opacity="0.33"/>
<circle cx="138" cy="551" r="2.6" fill="#dff8ff" opacity="0.31"/>
<circle cx="278" cy="893" r="2.6" fill="#dff8ff" opacity="0.82"/>
<circle cx="256" cy="873" r="2.0" fill="#dff8ff" opacity="0.72"/>
<circle cx="583" cy="170" r="2.6" fill="#dff8ff" opacity="0.68"/>
<circle cx="82" cy="294" r="2.0" fill="#dff8ff" opacity="0.68"/>
<circle cx="933" cy="710" r="2.6" fill="#dff8ff" opacity="0.47"/>
<circle cx="820" cy="730" r="1.6" fill="#dff8ff" opacity="0.49"/>
<circle cx="673" cy="972" r="1.2" fill="#dff8ff" opacity="0.44"/>
<circle cx="535" cy="904" r="2.6" fill="#dff8ff" opacity="0.64"/>
<circle cx="939" cy="733" r="2.6" fill="#dff8ff" opacity="0.79"/>
<circle cx="816" cy="769" r="1.6" fill="#dff8ff" opacity="0.41"/>
<circle cx="918" cy="589" r="2.6" fill="#dff8ff" opacity="0.73"/>
<circle cx="163" cy="620" r="2.6" fill="#dff8ff" opacity="0.54"/>
<circle cx="717" cy="967" r="1.2" fill="#dff8ff" opacity="0.46"/>
<circle cx="903" cy="544" r="1.2" fill="#dff8ff" opacity="0.70"/>
<circle cx="515" cy="57" r="1.2" fill="#dff8ff" opacity="0.62"/>
<circle cx="833" cy="724" r="1.2" fill="#dff8ff" opacity="0.35"/>
<circle cx="567" cy="962" r="2.0" fill="#dff8ff" opacity="0.27"/>
<circle cx="849" cy="574" r="1.6" fill="#dff8ff" opacity="0.77"/>
<circle cx="825" cy="323" r="2.0" fill="#dff8ff" opacity="0.64"/>
<circle cx="409" cy="840" r="1.2" fill="#dff8ff" opacity="0.56"/>
<circle cx="848" cy="174" r="1.2" fill="#dff8ff" opacity="0.43"/>
<circle cx="105" cy="471" r="1.6" fill="#dff8ff" opacity="0.55"/>
<circle cx="868" cy="474" r="1.6" fill="#dff8ff" opacity="0.80"/>
<circle cx="926" cy="344" r="1.2" fill="#dff8ff" opacity="0.78"/>
<circle cx="512" cy="512" r="482" fill="none" stroke="#b388ff" stroke-width="4" opacity="0.22"/>
<circle cx="512" cy="512" r="452" fill="none" stroke="#b388ff" stroke-width="7" opacity="0.55" filter="url(#glow)"/>

<g filter="url(#glowBig)">
  <path d="M 621 213 A 318 318 0 1 0 787 353" fill="none" stroke="#b388ff" stroke-width="12"/>
</g>
<path d="M 621 213 L 662 262 L 628 306 L 706 328 L 787 353" fill="none" stroke="#ffc400" stroke-width="9" stroke-linejoin="round" stroke-linecap="round" filter="url(#glow)"/>
<g fill="#05060f" stroke="#b388ff" stroke-width="6" filter="url(#glow)">
  <path d="M 388 232 L 418 232 L 403 306 Z"/>
  <path d="M 472 210 L 506 210 L 489 316 Z"/>
  <path d="M 556 216 L 586 216 L 571 292 Z"/>
</g>
<g filter="url(#glow)">
  <line x1="512" y1="360" x2="512" y2="760" stroke="#b388ff" stroke-width="14" stroke-linecap="round"/>
  <path d="M 512 400.0 C 607 424.0, 607 480.0, 512 512.0 C 417 544.0, 417 600.0, 512 632.0 C 607 664.0, 607 720.0, 512 744.0" fill="none" stroke="#ffc400" stroke-width="16" stroke-linecap="round"/>
  <circle cx="526" cy="394.0" r="15" fill="#ffc400"/>
  <line x1="538" y1="390.0" x2="560" y2="382.0" stroke="#ffc400" stroke-width="6" stroke-linecap="round"/>
</g>
</svg>