<svg xmlns="http://www.w3.org/2000/svg" width="1024" height="1024" viewBox="0 0 1024 1024">
<defs>
  <radialGradient id="bg" cx="50%" cy="42%" r="75%">
    <stop offset="0%" stop-color="#1b1040"/>
    <stop offset="55%" stop-color="#0c0820"/>
    <stop offset="100%" stop-color="#05060f"/>
  </radialGradient>
  <filter id="glow" x="-60%" y="-60%" width="220%" height="220%">
    <feGaussianBlur stdDeviation="10" result="b"/>
    <feMerge><feMergeNode in="b"/><feMergeNode in="SourceGraphic"/></feMerge>
  </filter>
  <filter id="glowBig" x="-80%" y="-80%" width="260%" height="260%">
    <feGaussianBlur stdDeviation="22" result="b"/>
    <feMerge><feMergeNode in="b"/><feMergeNode in="b"/><feMergeNode in="SourceGraphic"/></feMerge>
  </filter>
</defs>
<rect width="1024" height="1024" fill="url(#bg)"/>
<circle cx="160" cy="847" r="1.2" fill="#dff8ff" opacity="0.40"/>
<circle cx="55" cy="552" r="2.6" fill="#dff8ff" opacity="0.66"/>
<circle cx="935" cy="563" r="2.0" fill="#dff8ff" opacity="0.39"/>
<circle cx="147" cy="351" r="2.6" fill="#dff8ff" opacity="0.55"/>
<circle cx="907" cy="213" r="2.0" fill="#dff8ff" opacity="0.60"/>
<circle cx="881" cy="846" r="2.6" fill="#dff8ff" opacity="0.60"/>
<circle cx="502" cy="59" r="1.2" fill="#dff8ff" opacity="0.44"/>
<circle cx="848" cy="623" r="2.6" fill="#dff8ff" opacity="0.64"/>
<circle cx="193" cy="249" r="1.2" fill="#dff8ff" opacity="0.71"/>
<circle cx="550" cy="859" r="1.6" fill="#dff8ff" opacity="0.49"/>
<circle cx="361" cy="847" r="2.0" fill="#dff8ff" opacity="0.53"/>
<circle cx="785" cy="821" r="1.6" fill="#dff8ff" opacity="0.56"/>
<circle cx="860" cy="800" r="2.0" fill="#dff8ff" opacity="0.27"/>
<circle cx="867" cy="467" r="2.0" fill="#dff8ff" opacity="0.40"/>
<circle cx="136" cy="632" r="2.0" fill="#dff8ff" opacity="0.42"/>
<circle cx="191" cy="276" r="1.6" fill="#dff8ff" opacity="0.64"/>
<circle cx="140" cy="331" r="2.0" fill="#dff8ff" opacity="0.50"/>
<circle cx="211" cy="135" r="1.6" fill="#dff8ff" opacity="0.83"/>
<circle cx="446" cy="970" r="1.6" fill="#dff8ff" opacity="0.26"/>
<circle cx="171" cy="723" r="1.6" fill="#dff8ff" opacity="0.52"/>
<circle cx="60" cy="681" r="2.0" fill="#dff8ff" opacity="0.65"/>
<circle cx="151" cy="234" r="1.2" fill="#dff8ff" opacity="0.43"/>
<circle cx="858" cy="329" r="2.0" fill="#dff8ff" opacity="0.70"/>
<circle cx="958" cy="580" r="1.6" fill="#dff8ff" opacity="0.75"/>
<circle cx="869" cy="782" r="1.2" fill="#dff8ff" opacity="0.48"/>
<circle cx="217" cy="131" r="2.6" fill="#dff8ff" opacity="0.43"/>
<circle cx="346" cy="982" r="1.6" fill="#dff8ff" opacity="0.45"/>
<circle cx="361" cy="881" r="2.6" fill="#dff8ff" opacity="0.71"/>
<circle cx="543" cy="93" r="1.2" fill="#dff8ff" opacity="0.30"/>
<circle cx="235" cy="762" r="2.0" fill="#dff8ff" opacity="0.47"/>
<circle cx="866" cy="612" r="2.6" fill="#dff8ff" opacity="0.33"/>
<circle cx="561" cy="131" r="1.2" fill="#dff8ff" opacity="0.49"/>
<circle cx="397" cy="986" r="1.6" fill="#dff8ff" opacity="0.75"/>
<circle cx="109" cy="287" r="2.0" fill="#dff8ff" opacity="0.59"/>
<circle cx="922" cy="471" r="2.0" fill="#dff8ff" opacity="0.31"/>
<circle cx="74" cy="315" r="1.2" fill="#dff8ff" opacity="0.31"/>
<circle cx="983" cy="436" r="1.2" fill="#dff8ff" opacity="0.52"/>
<circle cx="686" cy="183" r="1.2" fill="#dff8ff" opacity="0.51"/>
<circle cx="336" cy="56" r="2.0" fill="#dff8ff" opacity="0.69"/>
<circle cx="414" cy="92" r="2.0" fill="#dff8ff" opacity="0.83"/>
<circle cx="975" cy="553" r="2.6" fill="#dff8ff" opacity="0.65"/>
<circle cx="108" cy="301" r="2.6" fill="#dff8ff" opacity="0.30"/>
<circle cx="918" cy="267" r="1.2" fill="#dff8ff" opacity="0.58"/>
<circle cx="265" cy="100" r="1.2" fill="#dff8ff" opacity="0.69"/>
<circle cx="482" cy="858" r="1.2" fill="#dff8ff" opacity="0.55"/>
<circle cx="796" cy="104" r="1.6" fill="#dff8ff" opacity="0.36"/>
<circle cx="174" cy="166" r="2.0" fill="#dff8ff" opacity="0.43"/>
<circle cx="714" cy="835" r="2.0" fill="#dff8ff" opacity="0.33"/>
<circle cx="727" cy="782" r="1.6" fill="#dff8ff" opacity="0.36"/>
<circle cx="273" cy="92" r="2.6" fill="#dff8ff" opacity="0.73"/>
<circle cx="851" cy="467" r="2.6" fill="#dff8ff" opacity="0.75"/>
<circle cx="602" cy="164" r="2.0" fill="#dff8ff" opacity="0.49"/>
<circle cx="523" cy="876" r="1.6" fill="#dff8ff" opacity="0.56"/>
<circle cx="794" cy="227" r="2.0" fill="#dff8ff" opacity="0.67"/>
<circle cx="848" cy="388" r="2.6" fill="#dff8ff" opacity="0.61"/>
<circle cx="956" cy="581" r="1.6" fill="#dff8ff" opacity="0.34"/>
<circle cx="441" cy="938" r="1.2" fill="#dff8ff" opacity="0.55"/>
<circle cx="400" cy="845" r="1.2" fill="#dff8ff" opacity="0.56"/>
<circle cx="117" cy="276" r="1.2" fill="#dff8ff" opacity="0.41"/>
<circle cx="164" cy="778" r="1.2" fill="#dff8ff" opacity="0.52"/>
<circle cx="344" cy="152" r="2.6" fill="#dff8ff" opacity="0.83"/>
<circle cx="145" cy="609" r="2.6" fill="#dff8ff" opacity="0.80"/>
<circle cx="955" cy="539" r="1.2" fill="#dff8ff" opacity="0.27"/>
<circle cx="281" cy="197" r="1.6" fill="#dff8ff" opacity="0.58"/>
<circle cx="793" cy="810" r="1.6" fill="#dff8ff" opacity="0.58"/>
<circle cx="503" cy="855" r="1.6" fill="#dff8ff" opacity="0.59"/>
<circle cx="134" cy="808" r="1.2" fill="#dff8ff" opacity="0.59"/>
<circle cx="656" cy="102" r="2.0" fill="#dff8ff" opacity="0.59"/>
<circle cx="31" cy="456" r="2.6" fill="#dff8ff" opacity="0.46"/>
<circle cx="989" cy="643" r="1.6" fill="#dff8ff" opacity="0.84"/>
<circle cx="512" cy="512" r="482" fill="none" stroke="#69f0ae" stroke-width="4" opacity="0.22"/>
<circle cx="512" cy="512" r="452" fill="none" stroke="#69f0ae" stroke-width="7" opacity="0.55" filter="url(#glow)"/>

<circle cx="512" cy="512" r="318" fill="none" stroke="#69f0ae" stroke-width="12" filter="url(#glowBig)"/>
<g filter="url(#glow)">
  <line x1="512" y1="300" x2="512" y2="730" stroke="#aef4ff" stroke-width="15" stroke-linecap="round"/>
  <path d="M 512 343.0 C 607 368.8, 607 429.0, 512 463.4 C 417 497.8, 417 558.0, 512 592.4000000000001 C 607 626.8, 607 687.0, 512 712.8" fill="none" stroke="#69f0ae" stroke-width="17" stroke-linecap="round"/>
  <circle cx="526" cy="336.55" r="15" fill="#69f0ae"/>
  <line x1="538" y1="332.25" x2="560" y2="323.65" stroke="#69f0ae" stroke-width="6" stroke-linecap="round"/>
</g>
<g stroke="#aef4ff" stroke-width="6" stroke-linecap="round" filter="url(#glow)" opacity="0.9">
  <line x1="512" y1="128" x2="512" y2="168"/><line x1="492" y1="148" x2="532" y2="148"/>
</g>
</svg>