<svg xmlns="http://www.w3.org/2000/svg" width="1024" height="1024" viewBox="0 0 1024 1024">
<defs>
  <radialGradient id="bg" cx="50%" cy="42%" r="75%">
    <stop offset="0%" stop-color="#1b1040"/>
    <stop offset="55%" stop-color="#0c0820"/>
    <stop offset="100%" stop-color="#05060f"/>
  </radialGradient>
  <filter id="glow" x="-60%" y="-60%" width="220%" height="220%">
    <feGaussianBlur stdDeviation="10" result="b"/>
    <feMerge><feMergeNode in="b"/><feMergeNode in="SourceGraphic"/></feMerge>
  </filter>
  <filter id="glowBig" x="-80%" y="-80%" width="260%" height="260%">
    <feGaussianBlur stdDeviation="22" result="b"/>
    <feMerge><feMergeNode in="b"/><feMergeNode in="b"/><feMergeNode in="SourceGraphic"/></feMerge>
  </filter>
</defs>
<rect width="1024" height="1024" fill="url(#bg)"/>
<circle cx="258" cy="129" r="2.6" fill="#dff8ff" opacity="0.54"/>
<circle cx="782" cy="827" r="2.0" fill="#dff8ff" opacity="0.38"/>
<circle cx="808" cy="802" r="1.6" fill="#dff8ff" opacity="0.35"/>
<circle cx="309" cy="866" r="2.0" fill="#dff8ff" opacity="0.30"/>
<circle cx="487" cy="116" r="2.0" fill="#dff8ff" opacity="0.25"/>
<circle cx="255" cy="280" r="1.2" fill="#dff8ff" opacity="0.30"/>
<circle cx="476" cy="992" r="2.6" fill="#dff8ff" opacity="0.67"/>
<circle cx="170" cy="680" r="1.2" fill="#dff8ff" opacity="0.50"/>
<circle cx="568" cy="902" r="1.2" fill="#dff8ff" opacity="0.75"/>
<circle cx="591" cy="861" r="1.2" fill="#dff8ff" opacity="0.45"/>
<circle cx="71" cy="702" r="2.0" fill="#dff8ff" opacity="0.69"/>
<circle cx="309" cy="961" r="2.6" fill="#dff8ff" opacity="0.77"/>
<circle cx="868" cy="686" r="1.2" fill="#dff8ff" opacity="0.43"/>
<circle cx="162" cy="398" r="1.6" fill="#dff8ff" opacity="0.45"/>
<circle cx="193" cy="786" r="2.0" fill="#dff8ff" opacity="0.85"/>
<circle cx="230" cy="914" r="1.2" fill="#dff8ff" opacity="0.29"/>
<circle cx="682" cy="174" r="1.2" fill="#dff8ff" opacity="0.58"/>
<circle cx="889" cy="333" r="1.2" fill="#dff8ff" opacity="0.84"/>
<circle cx="418" cy="899" r="1.2" fill="#dff8ff" opacity="0.55"/>
<circle cx="120" cy="233" r="1.6" fill="#dff8ff" opacity="0.45"/>
<circle cx="957" cy="674" r="1.2" fill="#dff8ff" opacity="0.49"/>
<circle cx="290" cy="855" r="1.6" fill="#dff8ff" opacity="0.66"/>
<circle cx="799" cy="234" r="1.6" fill="#dff8ff" opacity="0.26"/>
<circle cx="811" cy="785" r="1.6" fill="#dff8ff" opacity="0.58"/>
<circle cx="877" cy="224" r="2.0" fill="#dff8ff" opacity="0.74"/>
<circle cx="912" cy="454" r="1.2" fill="#dff8ff" opacity="0.27"/>
<circle cx="864" cy="616" r="1.6" fill="#dff8ff" opacity="0.27"/>
<circle cx="902" cy="316" r="2.0" fill="#dff8ff" opacity="0.75"/>
<circle cx="112" cy="554" r="2.6" fill="#dff8ff" opacity="0.37"/>
<circle cx="971" cy="405" r="2.6" fill="#dff8ff" opacity="0.76"/>
<circle cx="416" cy="104" r="2.0" fill="#dff8ff" opacity="0.56"/>
<circle cx="448" cy="857" r="2.6" fill="#dff8ff" opacity="0.29"/>
<circle cx="880" cy="219" r="2.0" fill="#dff8ff" opacity="0.81"/>
<circle cx="491" cy="144" r="1.6" fill="#dff8ff" opacity="0.47"/>
<circle cx="187" cy="711" r="2.0" fill="#dff8ff" opacity="0.55"/>
<circle cx="902" cy="715" r="1.2" fill="#dff8ff" opacity="0.64"/>
<circle cx="251" cy="204" r="1.2" fill="#dff8ff" opacity="0.66"/>
<circle cx="910" cy="480" r="2.0" fill="#dff8ff" opacity="0.81"/>
<circle cx="980" cy="358" r="2.6" fill="#dff8ff" opacity="0.30"/>
<circle cx="169" cy="810" r="1.6" fill="#dff8ff" opacity="0.42"/>
<circle cx="652" cy="902" r="2.0" fill="#dff8ff" opacity="0.64"/>
<circle cx="802" cy="808" r="1.2" fill="#dff8ff" opacity="0.35"/>
<circle cx="583" cy="934" r="1.2" fill="#dff8ff" opacity="0.35"/>
<circle cx="492" cy="884" r="1.6" fill="#dff8ff" opacity="0.62"/>
<circle cx="831" cy="322" r="2.6" fill="#dff8ff" opacity="0.78"/>
<circle cx="965" cy="332" r="2.6" fill="#dff8ff" opacity="0.50"/>
<circle cx="947" cy="631" r="1.6" fill="#dff8ff" opacity="0.56"/>
<circle cx="472" cy="960" r="2.0" fill="#dff8ff" opacity="0.61"/>
<circle cx="331" cy="118" r="2.0" fill="#dff8ff" opacity="0.54"/>
<circle cx="612" cy="94" r="1.6" fill="#dff8ff" opacity="0.29"/>
<circle cx="549" cy="48" r="1.6" fill="#dff8ff" opacity="0.34"/>
<circle cx="335" cy="147" r="1.2" fill="#dff8ff" opacity="0.78"/>
<circle cx="639" cy="196" r="1.6" fill="#dff8ff" opacity="0.64"/>
<circle cx="179" cy="844" r="2.6" fill="#dff8ff" opacity="0.55"/>
<circle cx="392" cy="188" r="2.0" fill="#dff8ff" opacity="0.56"/>
<circle cx="617" cy="45" r="1.6" fill="#dff8ff" opacity="0.58"/>
<circle cx="208" cy="826" r="2.6" fill="#dff8ff" opacity="0.45"/>
<circle cx="901" cy="374" r="2.6" fill="#dff8ff" opacity="0.61"/>
<circle cx="66" cy="639" r="2.0" fill="#dff8ff" opacity="0.60"/>
<circle cx="834" cy="808" r="1.2" fill="#dff8ff" opacity="0.78"/>
<circle cx="982" cy="370" r="1.2" fill="#dff8ff" opacity="0.36"/>
<circle cx="72" cy="530" r="1.6" fill="#dff8ff" opacity="0.27"/>
<circle cx="610" cy="163" r="2.0" fill="#dff8ff" opacity="0.32"/>
<circle cx="521" cy="31" r="1.6" fill="#dff8ff" opacity="0.62"/>
<circle cx="630" cy="48" r="1.2" fill="#dff8ff" opacity="0.26"/>
<circle cx="363" cy="977" r="2.6" fill="#dff8ff" opacity="0.63"/>
<circle cx="506" cy="92" r="2.0" fill="#dff8ff" opacity="0.59"/>
<circle cx="303" cy="230" r="2.6" fill="#dff8ff" opacity="0.44"/>
<circle cx="451" cy="967" r="2.0" fill="#dff8ff" opacity="0.70"/>
<circle cx="842" cy="340" r="1.6" fill="#dff8ff" opacity="0.40"/>
<circle cx="512" cy="512" r="482" fill="none" stroke="#ffc400" stroke-width="4" opacity="0.22"/>
<circle cx="512" cy="512" r="452" fill="none" stroke="#ffc400" stroke-width="7" opacity="0.55" filter="url(#glow)"/>

<path d="M 512 176 L 796 268 C 796 520, 720 700, 512 830 C 304 700, 228 520, 228 268 Z"
  fill="none" stroke="#ffc400" stroke-width="13" stroke-linejoin="round" filter="url(#glowBig)"/>
<path d="M 300 520 L 420 520 L 448 448 L 484 588 L 512 520 L 724 520"
  fill="none" stroke="#ff1744" stroke-width="12" stroke-linecap="round" stroke-linejoin="round" filter="url(#glow)"/>
<g stroke="#ff6d00" stroke-width="7" stroke-linecap="round" filter="url(#glow)" opacity="0.9">
  <line x1="596" y1="470" x2="620" y2="446"/>
  <line x1="636" y1="486" x2="668" y2="472"/>
  <line x1="640" y1="560" x2="668" y2="574"/>
</g>
</svg>