<svg xmlns="http://www.w3.org/2000/svg" width="1024" height="1024" viewBox="0 0 1024 1024">
<defs>
  <radialGradient id="bg" cx="50%" cy="42%" r="75%">
    <stop offset="0%" stop-color="#1b1040"/>
    <stop offset="55%" stop-color="#0c0820"/>
    <stop offset="100%" stop-color="#05060f"/>
  </radialGradient>
  <filter id="glow" x="-60%" y="-60%" width="220%" height="220%">
    <feGaussianBlur stdDeviation="10" result="b"/>
    <feMerge><feMergeNode in="b"/><feMergeNode in="SourceGraphic"/></feMerge>
  </filter>
  <filter id="glowBig" x="-80%" y="-80%" width="260%" height="260%">
    <feGaussianBlur stdDeviation="22" result="b"/>
    <feMerge><feMergeNode in="b"/><feMergeNode in="b"/><feMergeNode in="SourceGraphic"/></feMerge>
  </filter>
</defs>
<rect width="1024" height="1024" fill="url(#bg)"/>
<circle cx="342" cy="175" r="1.2" fill="#dff8ff" opacity="0.29"/>
<circle cx="86" cy="519" r="1.2" fill="#dff8ff" opacity="0.30"/>
<circle cx="561" cy="87" r="1.2" fill="#dff8ff" opacity="0.82"/>
<circle cx="90" cy="594" r="1.2" fill="#dff8ff" opacity="0.84"/>
<circle cx="309" cy="169" r="1.2" fill="#dff8ff" opacity="0.59"/>
<circle cx="129" cy="581" r="1.6" fill="#dff8ff" opacity="0.47"/>
<circle cx="558" cy="91" r="1.2" fill="#dff8ff" opacity="0.62"/>
<circle cx="920" cy="379" r="1.6" fill="#dff8ff" opacity="0.73"/>
<circle cx="874" cy="733" r="2.0" fill="#dff8ff" opacity="0.62"/>
<circle cx="101" cy="524" r="1.6" fill="#dff8ff" opacity="0.70"/>
<circle cx="68" cy="674" r="2.0" fill="#dff8ff" opacity="0.45"/>
<circle cx="120" cy="290" r="1.2" fill="#dff8ff" opacity="0.29"/>
<circle cx="675" cy="52" r="2.6" fill="#dff8ff" opacity="0.46"/>
<circle cx="240" cy="307" r="1.6" fill="#dff8ff" opacity="0.49"/>
<circle cx="914" cy="509" r="1.6" fill="#dff8ff" opacity="0.52"/>
<circle cx="560" cy="882" r="2.6" fill="#dff8ff" opacity="0.77"/>
<circle cx="376" cy="882" r="1.6" fill="#dff8ff" opacity="0.34"/>
<circle cx="200" cy="254" r="1.6" fill="#dff8ff" opacity="0.26"/>
<circle cx="831" cy="206" r="2.0" fill="#dff8ff" opacity="0.25"/>
<circle cx="576" cy="949" r="1.2" fill="#dff8ff" opacity="0.52"/>
<circle cx="455" cy="136" r="1.2" fill="#dff8ff" opacity="0.31"/>
<circle cx="945" cy="622" r="1.2" fill="#dff8ff" opacity="0.77"/>
<circle cx="622" cy="173" r="2.0" fill="#dff8ff" opacity="0.82"/>
<circle cx="141" cy="500" r="2.6" fill="#dff8ff" opacity="0.54"/>
<circle cx="331" cy="169" r="2.0" fill="#dff8ff" opacity="0.69"/>
<circle cx="948" cy="379" r="1.2" fill="#dff8ff" opacity="0.70"/>
<circle cx="530" cy="906" r="2.0" fill="#dff8ff" opacity="0.71"/>
<circle cx="852" cy="807" r="2.6" fill="#dff8ff" opacity="0.69"/>
<circle cx="373" cy="58" r="1.2" fill="#dff8ff" opacity="0.72"/>
<circle cx="809" cy="727" r="2.0" fill="#dff8ff" opacity="0.82"/>
<circle cx="249" cy="220" r="1.6" fill="#dff8ff" opacity="0.54"/>
<circle cx="980" cy="618" r="1.2" fill="#dff8ff" opacity="0.54"/>
<circle cx="112" cy="667" r="2.6" fill="#dff8ff" opacity="0.72"/>
<circle cx="202" cy="791" r="2.0" fill="#dff8ff" opacity="0.30"/>
<circle cx="942" cy="726" r="2.6" fill="#dff8ff" opacity="0.49"/>
<circle cx="943" cy="729" r="1.6" fill="#dff8ff" opacity="0.85"/>
<circle cx="57" cy="600" r="2.6" fill="#dff8ff" opacity="0.73"/>
<circle cx="171" cy="827" r="2.6" fill="#dff8ff" opacity="0.64"/>
<circle cx="966" cy="656" r="1.6" fill="#dff8ff" opacity="0.51"/>
<circle cx="870" cy="826" r="1.6" fill="#dff8ff" opacity="0.27"/>
<circle cx="89" cy="743" r="2.6" fill="#dff8ff" opacity="0.65"/>
<circle cx="827" cy="877" r="1.6" fill="#dff8ff" opacity="0.57"/>
<circle cx="535" cy="48" r="2.6" fill="#dff8ff" opacity="0.72"/>
<circle cx="174" cy="166" r="1.2" fill="#dff8ff" opacity="0.58"/>
<circle cx="132" cy="570" r="1.6" fill="#dff8ff" opacity="0.36"/>
<circle cx="466" cy="57" r="1.2" fill="#dff8ff" opacity="0.52"/>
<circle cx="491" cy="938" r="2.0" fill="#dff8ff" opacity="0.80"/>
<circle cx="891" cy="225" r="2.6" fill="#dff8ff" opacity="0.33"/>
<circle cx="147" cy="456" r="1.2" fill="#dff8ff" opacity="0.65"/>
<circle cx="322" cy="148" r="1.6" fill="#dff8ff" opacity="0.81"/>
<circle cx="274" cy="162" r="2.6" fill="#dff8ff" opacity="0.38"/>
<circle cx="948" cy="414" r="2.6" fill="#dff8ff" opacity="0.35"/>
<circle cx="374" cy="119" r="2.0" fill="#dff8ff" opacity="0.26"/>
<circle cx="47" cy="350" r="2.0" fill="#dff8ff" opacity="0.56"/>
<circle cx="131" cy="286" r="1.2" fill="#dff8ff" opacity="0.79"/>
<circle cx="205" cy="759" r="2.6" fill="#dff8ff" opacity="0.76"/>
<circle cx="682" cy="942" r="2.6" fill="#dff8ff" opacity="0.34"/>
<circle cx="916" cy="580" r="2.0" fill="#dff8ff" opacity="0.30"/>
<circle cx="85" cy="693" r="2.6" fill="#dff8ff" opacity="0.79"/>
<circle cx="115" cy="281" r="1.6" fill="#dff8ff" opacity="0.29"/>
<circle cx="862" cy="467" r="2.0" fill="#dff8ff" opacity="0.85"/>
<circle cx="433" cy="912" r="1.6" fill="#dff8ff" opacity="0.28"/>
<circle cx="714" cy="934" r="1.6" fill="#dff8ff" opacity="0.41"/>
<circle cx="517" cy="973" r="2.6" fill="#dff8ff" opacity="0.40"/>
<circle cx="556" cy="887" r="2.0" fill="#dff8ff" opacity="0.66"/>
<circle cx="977" cy="360" r="1.6" fill="#dff8ff" opacity="0.49"/>
<circle cx="365" cy="82" r="1.6" fill="#dff8ff" opacity="0.26"/>
<circle cx="633" cy="878" r="2.6" fill="#dff8ff" opacity="0.35"/>
<circle cx="869" cy="676" r="2.0" fill="#dff8ff" opacity="0.61"/>
<circle cx="698" cy="74" r="1.6" fill="#dff8ff" opacity="0.34"/>
<circle cx="512" cy="512" r="482" fill="none" stroke="#69f0ae" stroke-width="4" opacity="0.22"/>
<circle cx="512" cy="512" r="452" fill="none" stroke="#69f0ae" stroke-width="7" opacity="0.55" filter="url(#glow)"/>

<circle cx="512" cy="512" r="330" fill="none" stroke="#69f0ae" stroke-width="5" opacity="0.4"/>
<g filter="url(#glowBig)"><circle cx="512" cy="182" r="24" fill="#69f0ae"/><circle cx="770" cy="306" r="24" fill="#69f0ae"/><circle cx="834" cy="585" r="24" fill="#69f0ae"/><circle cx="655" cy="809" r="24" fill="#69f0ae"/><circle cx="369" cy="809" r="24" fill="#69f0ae"/><circle cx="190" cy="585" r="24" fill="#69f0ae"/><circle cx="254" cy="306" r="24" fill="#69f0ae"/></g>
<g filter="url(#glow)">
  <circle cx="512" cy="392" r="62" fill="none" stroke="#aef4ff" stroke-width="10"/>
  <circle cx="489" cy="386" r="9" fill="#aef4ff"/><circle cx="535" cy="386" r="9" fill="#aef4ff"/>
  <rect x="428" y="472" width="168" height="196" rx="34" fill="none" stroke="#aef4ff" stroke-width="10"/>
  <path d="M 540 512 C 496 526, 496 556, 540 570 C 578 582, 578 606, 540 618" fill="none" stroke="#69f0ae" stroke-width="9" stroke-linecap="round"/>
</g>
<path d="M 700 300 A 284 284 0 0 1 760 620" fill="none" stroke="#69f0ae" stroke-width="7" opacity="0.7" filter="url(#glow)"/>
<path d="M 760 620 l -14 -40 M 760 620 l 36 -20" stroke="#69f0ae" stroke-width="7" stroke-linecap="round" opacity="0.7" filter="url(#glow)"/>
</svg>