<svg xmlns="http://www.w3.org/2000/svg" width="1024" height="1024" viewBox="0 0 1024 1024">
<defs>
  <radialGradient id="bg" cx="50%" cy="42%" r="75%">
    <stop offset="0%" stop-color="#1b1040"/>
    <stop offset="55%" stop-color="#0c0820"/>
    <stop offset="100%" stop-color="#05060f"/>
  </radialGradient>
  <filter id="glow" x="-60%" y="-60%" width="220%" height="220%">
    <feGaussianBlur stdDeviation="10" result="b"/>
    <feMerge><feMergeNode in="b"/><feMergeNode in="SourceGraphic"/></feMerge>
  </filter>
  <filter id="glowBig" x="-80%" y="-80%" width="260%" height="260%">
    <feGaussianBlur stdDeviation="22" result="b"/>
    <feMerge><feMergeNode in="b"/><feMergeNode in="b"/><feMergeNode in="SourceGraphic"/></feMerge>
  </filter>
</defs>
<rect width="1024" height="1024" fill="url(#bg)"/>
<circle cx="633" cy="93" r="1.2" fill="#dff8ff" opacity="0.80"/>
<circle cx="215" cy="721" r="2.6" fill="#dff8ff" opacity="0.49"/>
<circle cx="860" cy="254" r="1.6" fill="#dff8ff" opacity="0.77"/>
<circle cx="677" cy="92" r="1.2" fill="#dff8ff" opacity="0.43"/>
<circle cx="877" cy="718" r="2.6" fill="#dff8ff" opacity="0.49"/>
<circle cx="902" cy="687" r="1.2" fill="#dff8ff" opacity="0.76"/>
<circle cx="187" cy="860" r="1.2" fill="#dff8ff" opacity="0.68"/>
<circle cx="234" cy="832" r="2.0" fill="#dff8ff" opacity="0.42"/>
<circle cx="175" cy="313" r="2.6" fill="#dff8ff" opacity="0.77"/>
<circle cx="73" cy="622" r="1.2" fill="#dff8ff" opacity="0.48"/>
<circle cx="919" cy="299" r="1.6" fill="#dff8ff" opacity="0.85"/>
<circle cx="329" cy="104" r="1.2" fill="#dff8ff" opacity="0.82"/>
<circle cx="966" cy="311" r="2.0" fill="#dff8ff" opacity="0.34"/>
<circle cx="333" cy="954" r="2.6" fill="#dff8ff" opacity="0.48"/>
<circle cx="869" cy="402" r="1.2" fill="#dff8ff" opacity="0.62"/>
<circle cx="937" cy="519" r="2.6" fill="#dff8ff" opacity="0.63"/>
<circle cx="720" cy="933" r="2.6" fill="#dff8ff" opacity="0.84"/>
<circle cx="41" cy="430" r="2.0" fill="#dff8ff" opacity="0.26"/>
<circle cx="88" cy="635" r="2.6" fill="#dff8ff" opacity="0.46"/>
<circle cx="914" cy="617" r="2.0" fill="#dff8ff" opacity="0.69"/>
<circle cx="682" cy="959" r="2.0" fill="#dff8ff" opacity="0.63"/>
<circle cx="201" cy="209" r="2.0" fill="#dff8ff" opacity="0.76"/>
<circle cx="285" cy="789" r="1.2" fill="#dff8ff" opacity="0.71"/>
<circle cx="56" cy="579" r="1.6" fill="#dff8ff" opacity="0.44"/>
<circle cx="245" cy="805" r="1.6" fill="#dff8ff" opacity="0.45"/>
<circle cx="124" cy="609" r="2.0" fill="#dff8ff" opacity="0.65"/>
<circle cx="246" cy="811" r="1.6" fill="#dff8ff" opacity="0.30"/>
<circle cx="745" cy="240" r="2.6" fill="#dff8ff" opacity="0.41"/>
<circle cx="953" cy="334" r="1.6" fill="#dff8ff" opacity="0.77"/>
<circle cx="358" cy="828" r="1.2" fill="#dff8ff" opacity="0.73"/>
<circle cx="363" cy="155" r="2.0" fill="#dff8ff" opacity="0.56"/>
<circle cx="578" cy="64" r="2.6" fill="#dff8ff" opacity="0.34"/>
<circle cx="449" cy="946" r="1.6" fill="#dff8ff" opacity="0.27"/>
<circle cx="554" cy="888" r="1.2" fill="#dff8ff" opacity="0.76"/>
<circle cx="221" cy="882" r="2.6" fill="#dff8ff" opacity="0.60"/>
<circle cx="196" cy="319" r="1.2" fill="#dff8ff" opacity="0.56"/>
<circle cx="429" cy="935" r="1.2" fill="#dff8ff" opacity="0.45"/>
<circle cx="273" cy="861" r="2.6" fill="#dff8ff" opacity="0.74"/>
<circle cx="145" cy="261" r="2.0" fill="#dff8ff" opacity="0.80"/>
<circle cx="807" cy="824" r="1.2" fill="#dff8ff" opacity="0.54"/>
<circle cx="759" cy="269" r="2.6" fill="#dff8ff" opacity="0.28"/>
<circle cx="341" cy="820" r="1.2" fill="#dff8ff" opacity="0.72"/>
<circle cx="495" cy="62" r="1.2" fill="#dff8ff" opacity="0.56"/>
<circle cx="99" cy="402" r="2.6" fill="#dff8ff" opacity="0.60"/>
<circle cx="347" cy="149" r="1.2" fill="#dff8ff" opacity="0.68"/>
<circle cx="397" cy="107" r="1.6" fill="#dff8ff" opacity="0.28"/>
<circle cx="81" cy="635" r="2.0" fill="#dff8ff" opacity="0.50"/>
<circle cx="700" cy="99" r="2.6" fill="#dff8ff" opacity="0.38"/>
<circle cx="344" cy="964" r="2.0" fill="#dff8ff" opacity="0.32"/>
<circle cx="696" cy="935" r="2.6" fill="#dff8ff" opacity="0.65"/>
<circle cx="129" cy="597" r="1.2" fill="#dff8ff" opacity="0.53"/>
<circle cx="820" cy="359" r="1.2" fill="#dff8ff" opacity="0.27"/>
<circle cx="141" cy="495" r="2.0" fill="#dff8ff" opacity="0.60"/>
<circle cx="719" cy="133" r="1.2" fill="#dff8ff" opacity="0.81"/>
<circle cx="89" cy="343" r="1.6" fill="#dff8ff" opacity="0.75"/>
<circle cx="263" cy="203" r="1.6" fill="#dff8ff" opacity="0.52"/>
<circle cx="705" cy="939" r="2.0" fill="#dff8ff" opacity="0.47"/>
<circle cx="433" cy="110" r="1.6" fill="#dff8ff" opacity="0.83"/>
<circle cx="185" cy="696" r="2.6" fill="#dff8ff" opacity="0.34"/>
<circle cx="417" cy="886" r="1.6" fill="#dff8ff" opacity="0.31"/>
<circle cx="751" cy="914" r="2.6" fill="#dff8ff" opacity="0.60"/>
<circle cx="857" cy="161" r="1.6" fill="#dff8ff" opacity="0.34"/>
<circle cx="527" cy="931" r="2.0" fill="#dff8ff" opacity="0.65"/>
<circle cx="855" cy="604" r="2.0" fill="#dff8ff" opacity="0.78"/>
<circle cx="805" cy="223" r="2.0" fill="#dff8ff" opacity="0.39"/>
<circle cx="495" cy="863" r="2.6" fill="#dff8ff" opacity="0.84"/>
<circle cx="856" cy="416" r="1.2" fill="#dff8ff" opacity="0.53"/>
<circle cx="251" cy="256" r="1.2" fill="#dff8ff" opacity="0.83"/>
<circle cx="853" cy="263" r="1.6" fill="#dff8ff" opacity="0.72"/>
<circle cx="163" cy="630" r="1.2" fill="#dff8ff" opacity="0.79"/>
<circle cx="512" cy="512" r="482" fill="none" stroke="#00e5ff" stroke-width="4" opacity="0.22"/>
<circle cx="512" cy="512" r="452" fill="none" stroke="#00e5ff" stroke-width="7" opacity="0.55" filter="url(#glow)"/>

<polyline points="150,730 250,690 330,724 420,682 512,712 610,676 700,716 800,684 874,714"
  fill="none" stroke="#b388ff" stroke-width="9" stroke-linejoin="round" filter="url(#glow)" opacity="0.9"/>
<g filter="url(#glow)">
  <line x1="620" y1="688" x2="620" y2="420" stroke="#00e5ff" stroke-width="12" stroke-linecap="round"/>
  <path d="M 620 420 L 578 500 M 620 420 L 662 500 M 592 470 L 648 470" stroke="#00e5ff" stroke-width="9" fill="none" stroke-linecap="round"/>
  <circle cx="620" cy="392" r="17" fill="#ffd54f"/>
</g>
<g fill="none" stroke="#00e5ff" stroke-width="8" stroke-linecap="round" filter="url(#glow)">
  <path d="M 566 330 A 80 80 0 0 1 674 330" opacity="0.95"/>
  <path d="M 528 276 A 132 132 0 0 1 712 276" opacity="0.65"/>
  <path d="M 492 224 A 184 184 0 0 1 748 224" opacity="0.4"/>
</g>
<g filter="url(#glow)">
  <path d="M 356 682 L 316 590 L 396 590 Z" fill="none" stroke="#aef4ff" stroke-width="9" stroke-linejoin="round" transform="rotate(180 356 636)"/>
</g>
</svg>