<svg xmlns="http://www.w3.org/2000/svg" width="1024" height="1024" viewBox="0 0 1024 1024">
<defs>
  <radialGradient id="bg" cx="50%" cy="42%" r="75%">
    <stop offset="0%" stop-color="#1b1040"/>
    <stop offset="55%" stop-color="#0c0820"/>
    <stop offset="100%" stop-color="#05060f"/>
  </radialGradient>
  <filter id="glow" x="-60%" y="-60%" width="220%" height="220%">
    <feGaussianBlur stdDeviation="10" result="b"/>
    <feMerge><feMergeNode in="b"/><feMergeNode in="SourceGraphic"/></feMerge>
  </filter>
  <filter id="glowBig" x="-80%" y="-80%" width="260%" height="260%">
    <feGaussianBlur stdDeviation="22" result="b"/>
    <feMerge><feMergeNode in="b"/><feMergeNode in="b"/><feMergeNode in="SourceGraphic"/></feMerge>
  </filter>
</defs>
<rect width="1024" height="1024" fill="url(#bg)"/>
<circle cx="164" cy="865" r="1.2" fill="#dff8ff" opacity="0.45"/>
<circle cx="352" cy="933" r="1.2" fill="#dff8ff" opacity="0.69"/>
<circle cx="947" cy="437" r="1.6" fill="#dff8ff" opacity="0.39"/>
<circle cx="137" cy="518" r="1.2" fill="#dff8ff" opacity="0.71"/>
<circle cx="128" cy="311" r="1.6" fill="#dff8ff" opacity="0.69"/>
<circle cx="437" cy="115" r="2.0" fill="#dff8ff" opacity="0.80"/>
<circle cx="72" cy="713" r="1.2" fill="#dff8ff" opacity="0.78"/>
<circle cx="83" cy="395" r="2.6" fill="#dff8ff" opacity="0.33"/>
<circle cx="258" cy="740" r="1.2" fill="#dff8ff" opacity="0.83"/>
<circle cx="221" cy="852" r="2.0" fill="#dff8ff" opacity="0.25"/>
<circle cx="110" cy="550" r="1.2" fill="#dff8ff" opacity="0.55"/>
<circle cx="215" cy="767" r="1.6" fill="#dff8ff" opacity="0.35"/>
<circle cx="617" cy="954" r="1.2" fill="#dff8ff" opacity="0.41"/>
<circle cx="689" cy="851" r="2.0" fill="#dff8ff" opacity="0.69"/>
<circle cx="585" cy="63" r="2.6" fill="#dff8ff" opacity="0.82"/>
<circle cx="71" cy="383" r="1.2" fill="#dff8ff" opacity="0.77"/>
<circle cx="616" cy="31" r="1.2" fill="#dff8ff" opacity="0.38"/>
<circle cx="116" cy="637" r="1.2" fill="#dff8ff" opacity="0.56"/>
<circle cx="83" cy="398" r="2.6" fill="#dff8ff" opacity="0.55"/>
<circle cx="859" cy="386" r="2.0" fill="#dff8ff" opacity="0.35"/>
<circle cx="843" cy="280" r="1.2" fill="#dff8ff" opacity="0.81"/>
<circle cx="810" cy="283" r="1.6" fill="#dff8ff" opacity="0.84"/>
<circle cx="615" cy="41" r="1.2" fill="#dff8ff" opacity="0.52"/>
<circle cx="788" cy="314" r="1.2" fill="#dff8ff" opacity="0.83"/>
<circle cx="372" cy="166" r="2.0" fill="#dff8ff" opacity="0.33"/>
<circle cx="113" cy="566" r="1.2" fill="#dff8ff" opacity="0.29"/>
<circle cx="885" cy="193" r="2.0" fill="#dff8ff" opacity="0.71"/>
<circle cx="879" cy="507" r="1.2" fill="#dff8ff" opacity="0.80"/>
<circle cx="297" cy="154" r="1.2" fill="#dff8ff" opacity="0.35"/>
<circle cx="791" cy="858" r="1.6" fill="#dff8ff" opacity="0.36"/>
<circle cx="495" cy="942" r="1.2" fill="#dff8ff" opacity="0.81"/>
<circle cx="887" cy="555" r="1.2" fill="#dff8ff" opacity="0.78"/>
<circle cx="583" cy="951" r="1.2" fill="#dff8ff" opacity="0.68"/>
<circle cx="725" cy="129" r="2.6" fill="#dff8ff" opacity="0.52"/>
<circle cx="81" cy="611" r="2.0" fill="#dff8ff" opacity="0.40"/>
<circle cx="958" cy="583" r="2.6" fill="#dff8ff" opacity="0.78"/>
<circle cx="65" cy="605" r="1.2" fill="#dff8ff" opacity="0.66"/>
<circle cx="422" cy="96" r="1.6" fill="#dff8ff" opacity="0.27"/>
<circle cx="756" cy="111" r="1.2" fill="#dff8ff" opacity="0.46"/>
<circle cx="599" cy="971" r="2.6" fill="#dff8ff" opacity="0.75"/>
<circle cx="132" cy="366" r="1.6" fill="#dff8ff" opacity="0.52"/>
<circle cx="102" cy="652" r="1.2" fill="#dff8ff" opacity="0.47"/>
<circle cx="130" cy="801" r="1.2" fill="#dff8ff" opacity="0.79"/>
<circle cx="873" cy="646" r="2.0" fill="#dff8ff" opacity="0.33"/>
<circle cx="371" cy="976" r="2.6" fill="#dff8ff" opacity="0.81"/>
<circle cx="364" cy="837" r="2.6" fill="#dff8ff" opacity="0.51"/>
<circle cx="106" cy="320" r="2.6" fill="#dff8ff" opacity="0.62"/>
<circle cx="343" cy="194" r="1.2" fill="#dff8ff" opacity="0.36"/>
<circle cx="163" cy="633" r="2.0" fill="#dff8ff" opacity="0.83"/>
<circle cx="958" cy="608" r="2.6" fill="#dff8ff" opacity="0.38"/>
<circle cx="48" cy="563" r="2.6" fill="#dff8ff" opacity="0.39"/>
<circle cx="477" cy="33" r="1.6" fill="#dff8ff" opacity="0.29"/>
<circle cx="886" cy="518" r="1.6" fill="#dff8ff" opacity="0.56"/>
<circle cx="375" cy="943" r="1.6" fill="#dff8ff" opacity="0.44"/>
<circle cx="620" cy="867" r="1.6" fill="#dff8ff" opacity="0.26"/>
<circle cx="690" cy="49" r="2.6" fill="#dff8ff" opacity="0.56"/>
<circle cx="492" cy="988" r="1.6" fill="#dff8ff" opacity="0.45"/>
<circle cx="210" cy="781" r="1.2" fill="#dff8ff" opacity="0.52"/>
<circle cx="160" cy="438" r="1.6" fill="#dff8ff" opacity="0.75"/>
<circle cx="578" cy="40" r="1.2" fill="#dff8ff" opacity="0.81"/>
<circle cx="639" cy="959" r="1.2" fill="#dff8ff" opacity="0.80"/>
<circle cx="372" cy="887" r="2.6" fill="#dff8ff" opacity="0.83"/>
<circle cx="929" cy="550" r="1.6" fill="#dff8ff" opacity="0.83"/>
<circle cx="853" cy="590" r="1.6" fill="#dff8ff" opacity="0.64"/>
<circle cx="839" cy="881" r="1.6" fill="#dff8ff" opacity="0.63"/>
<circle cx="797" cy="921" r="2.6" fill="#dff8ff" opacity="0.76"/>
<circle cx="791" cy="919" r="1.6" fill="#dff8ff" opacity="0.75"/>
<circle cx="165" cy="431" r="1.6" fill="#dff8ff" opacity="0.75"/>
<circle cx="774" cy="849" r="1.2" fill="#dff8ff" opacity="0.85"/>
<circle cx="477" cy="928" r="1.2" fill="#dff8ff" opacity="0.37"/>
<circle cx="512" cy="512" r="482" fill="none" stroke="#ffd54f" stroke-width="4" opacity="0.22"/>
<circle cx="512" cy="512" r="452" fill="none" stroke="#ffd54f" stroke-width="7" opacity="0.55" filter="url(#glow)"/>

<g filter="url(#glow)"><line x1="392" y1="322" x2="470" y2="268" stroke="#ffd54f" stroke-width="3" opacity="0.45"/><line x1="470" y1="268" x2="552" y2="300" stroke="#ffd54f" stroke-width="3" opacity="0.45"/><line x1="552" y1="300" x2="628" y2="244" stroke="#ffd54f" stroke-width="3" opacity="0.45"/><line x1="628" y1="244" x2="700" y2="296" stroke="#ffd54f" stroke-width="3" opacity="0.45"/><line x1="700" y1="296" x2="338" y2="396" stroke="#ffd54f" stroke-width="3" opacity="0.45"/><line x1="338" y1="396" x2="438" y2="386" stroke="#ffd54f" stroke-width="3" opacity="0.45"/><line x1="438" y1="386" x2="516" y2="356" stroke="#ffd54f" stroke-width="3" opacity="0.45"/><line x1="516" y1="356" x2="594" y2="372" stroke="#ffd54f" stroke-width="3" opacity="0.45"/><line x1="594" y1="372" x2="672" y2="384" stroke="#ffd54f" stroke-width="3" opacity="0.45"/><line x1="672" y1="384" x2="742" y2="372" stroke="#ffd54f" stroke-width="3" opacity="0.45"/><circle cx="392" cy="322" r="9" fill="#fff"/><circle cx="392" cy="322" r="16" fill="none" stroke="#ffd54f" stroke-width="3" opacity="0.6"/><circle cx="470" cy="268" r="9" fill="#fff"/><circle cx="470" cy="268" r="16" fill="none" stroke="#ffd54f" stroke-width="3" opacity="0.6"/><circle cx="552" cy="300" r="9" fill="#fff"/><circle cx="552" cy="300" r="16" fill="none" stroke="#ffd54f" stroke-width="3" opacity="0.6"/><circle cx="628" cy="244" r="9" fill="#fff"/><circle cx="628" cy="244" r="16" fill="none" stroke="#ffd54f" stroke-width="3" opacity="0.6"/><circle cx="700" cy="296" r="9" fill="#fff"/><circle cx="700" cy="296" r="16" fill="none" stroke="#ffd54f" stroke-width="3" opacity="0.6"/><circle cx="338" cy="396" r="9" fill="#fff"/><circle cx="338" cy="396" r="16" fill="none" stroke="#ffd54f" stroke-width="3" opacity="0.6"/><circle cx="438" cy="386" r="9" fill="#fff"/><circle cx="438" cy="386" r="16" fill="none" stroke="#ffd54f" stroke-width="3" opacity="0.6"/><circle cx="516" cy="356" r="9" fill="#fff"/><circle cx="516" cy="356" r="16" fill="none" stroke="#ffd54f" stroke-width="3" opacity="0.6"/><circle cx="594" cy="372" r="9" fill="#fff"/><circle cx="594" cy="372" r="16" fill="none" stroke="#ffd54f" stroke-width="3" opacity="0.6"/><circle cx="672" cy="384" r="9" fill="#fff"/><circle cx="672" cy="384" r="16" fill="none" stroke="#ffd54f" stroke-width="3" opacity="0.6"/><circle cx="742" cy="372" r="9" fill="#fff"/><circle cx="742" cy="372" r="16" fill="none" stroke="#ffd54f" stroke-width="3" opacity="0.6"/></g>
<g filter="url(#glowBig)" fill="none" stroke="#ffd54f" stroke-width="12" stroke-linejoin="round">
  <path d="M 512 500 C 430 452, 330 452, 258 492 L 258 712 C 330 672, 430 672, 512 720 Z"/>
  <path d="M 512 500 C 594 452, 694 452, 766 492 L 766 712 C 694 672, 594 672, 512 720 Z"/>
</g>
<g fill="none" stroke="#ffd54f" stroke-width="6" opacity="0.65" filter="url(#glow)">
  <path d="M 306 536 C 366 508, 428 508, 476 534"/>
  <path d="M 306 594 C 366 566, 428 566, 476 592"/>
  <path d="M 306 652 C 366 624, 428 624, 476 650"/>
  <path d="M 548 534 C 596 508, 658 508, 718 536"/>
  <path d="M 548 592 C 596 566, 658 566, 718 594"/>
  <path d="M 548 650 C 596 624, 658 624, 718 652"/>
</g>
</svg>